<?xml version="1.0" encoding="UTF-8" standalone="yes"?>
<!DOCTYPE svg PUBLIC "-//W3C//DTD SVG 1.1//EN" "http://www.w3.org/Graphics/SVG/1.1/DTD/svg11.dtd">

<svg width="512" height="512" viewBox="0 0 512 512" xmlns="http://www.w3.org/2000/svg" xmlns:xlink="http://www.w3.org/1999/xlink" version="1.1" baseProfile="full">
    <g transform="scale(1.000000,-1.000000) translate(0,-512)">
        <path d="M 21.717303 48.384559 Q 21.430559 51.968868 21.430559 55.911607 Q 21.430559 59.352543 21.645617 62.650107 L 1.000000 62.650107 L 4.010819 77.059027 L 23.652830 77.059027 Q 26.663649 89.890852 33.903952 98.564879 Q 44.728564 111.611762 61.503128 111.611762 Q 83.869214 111.611762 94.263708 94.120336 Q 99.998602 84.299331 100.428719 74.406639 L 81.862001 74.406639 Q 80.069847 82.005373 77.202400 85.876426 Q 72.184368 92.758299 62.219990 92.758299 Q 52.112240 92.758299 46.233974 83.008980 Q 44.656878 80.356591 43.509899 77.059027 L 71.969309 77.059027 L 68.958490 62.650107 L 40.642453 62.650107 Q 40.427394 59.280857 40.427394 55.553176 Q 40.427394 51.753809 40.642453 48.384559 L 67.166336 48.384559 L 64.155517 33.975639 L 43.868330 33.975639 Q 45.015309 31.179878 46.592405 28.885921 Q 52.757415 20.068521 62.291676 20.068521 Q 72.040995 20.068521 77.130714 27.667256 Q 79.998160 31.753367 81.862001 39.925591 L 100.213661 39.925591 Q 97.776331 22.649224 87.883639 11.824612 Q 77.990948 1.000000 62.506735 1.000000 Q 43.366527 1.000000 32.398543 15.623979 Q 26.663649 23.294399 23.939575 33.975639 L 1.000000 33.975639 L 4.010819 48.384559 Z" transform="scale(1.000000,1.000000) translate(309.285640,70.999997)" fill="#f8b31e" opacity="1.000000"></path>
        <path d="M 1.000000 122.268634 L 1.000010 1.000000 L 61.000010 1.000000 L 61.000000 181.000002 Z" transform="scale(1.000000,1.000000) translate(79.000000,71.000001)" fill="#f8b31e" opacity="1.000000"></path>
        <path d="M 65.000000 1.500000 L 65.503800 1.550700 L 65.973100 1.696400 L 66.397700 1.926900 L 66.767700 2.232200 L 67.073000 2.602200 L 67.303500 3.026800 L 67.449200 3.496100 L 67.499900 4.000000 L 67.499800 184.000000 L 67.469500 184.402000 L 67.382200 184.776000 L 67.243400 185.119900 L 67.058500 185.431100 L 66.833100 185.707500 L 66.572800 185.946800 L 66.282800 186.146500 L 65.968900 186.304500 L 65.636400 186.418400 L 65.290800 186.485800 L 64.937700 186.504500 L 64.582500 186.472200 L 64.230800 186.386600 L 63.888000 186.245300 L 63.559600 186.046000 L 63.251100 185.786500 L 3.251100 127.055100 L 2.931000 126.672100 L 2.695300 126.237600 L 2.549700 125.765200 L 2.499900 125.268500 L 2.500000 3.999900 L 2.550700 3.496100 L 2.696400 3.026800 L 2.926900 2.602200 L 3.232200 2.232200 L 3.602200 1.926900 L 4.026800 1.696400 L 4.496100 1.550700 L 5.000000 1.500000 Z M 5.000000 4.000000 L 4.999900 125.268600 L 64.999900 184.000000 L 65.000000 4.000000 Z" transform="scale(1.000000,1.000000) translate(75.000000,68.000000)" fill="#f8b31e" opacity="1.000000"></path>
        <path d="M 1.000000 1.000000 L 1.000000 41.000000 L 61.000000 101.000000 L 81.000000 81.000000 L 241.000000 241.000000 L 221.000000 261.000000 L 281.000000 261.000000 L 281.000000 201.000000 L 261.000000 221.000000 L 81.000000 41.000000 L 61.000000 57.111853 Z" transform="scale(1.000000,1.000000) translate(79.000000,171.000000)" fill="#f8b31e" opacity="1.000000"></path>
        <path d="M 1.000000 1.000000 L 1.000000 241.000000 C 1.000000 242.380712 2.119288 243.500000 3.500000 243.500000 L 63.499989 243.500000 C 64.880701 243.500000 65.999989 242.380712 65.999989 241.000000 L 65.999989 61.000000 L 60.999989 61.000000 L 60.999989 241.000000 L 63.499989 238.500000 L 3.500000 238.500000 L 6.000000 241.000000 L 6.000000 1.000000 L 1.000000 1.000000 Z" transform="scale(1.000000,1.000000) translate(76.500009,191.000000)" fill="#f8b31e" opacity="1.000000"></path>
        <path d="M 1.000000 1.000000 L 1.000000 241.000000 C 1.000000 242.380712 2.119288 243.500000 3.500000 243.500000 L 63.500000 243.500000 C 64.880712 243.500000 66.000000 242.380712 66.000000 241.000000 L 66.000000 61.000000 L 61.000000 61.000000 L 61.000000 241.000000 L 63.500000 238.500000 L 3.500000 238.500000 L 6.000000 241.000000 L 6.000000 1.000000 L 1.000000 1.000000 Z" transform="scale(1.000000,1.000000) translate(156.500000,231.000000)" fill="#f8b31e" opacity="1.000000"></path>
        <path d="M 5.347046 164.735232 L 96.276438 4.735232 L 94.102915 6.000000 L 174.102915 6.000000 L 171.870632 2.374428 L 60.941240 222.374428 L 65.405806 224.625572 L 176.335199 4.625572 C 177.173589 2.962840 175.965058 1.000000 174.102915 1.000000 L 94.102915 1.000000 C 93.203668 1.000000 92.373704 1.482954 91.929392 2.264768 L 1.000000 162.264768 L 5.347046 164.735232 Z" transform="scale(1.000000,1.000000) translate(145.897085,68.500000)" fill="#f8b31e" opacity="1.000000"></path>
        <path d="M 1.000000 3.500000 L 1.000000 103.492001 C 1.000000 104.872713 2.119288 105.992001 3.500000 105.992001 C 4.880712 105.992001 6.000000 104.872713 6.000000 103.492001 L 6.000000 3.500000 C 6.000000 2.119288 4.880712 1.000000 3.500000 1.000000 C 2.119288 1.000000 1.000000 2.119288 1.000000 3.500000 Z" transform="scale(1.000000,1.000000) translate(356.500000,208.507999)" fill="#f8b31e" opacity="1.000000"></path>
        <path d="M 1.000000 3.500000 L 1.000000 63.500000 C 1.000000 64.880712 2.119288 66.000000 3.500000 66.000000 C 4.880712 66.000000 6.000000 64.880712 6.000000 63.500000 L 6.000000 3.500000 C 6.000000 2.119288 4.880712 1.000000 3.500000 1.000000 C 2.119288 1.000000 1.000000 2.119288 1.000000 3.500000 Z" transform="scale(1.000000,1.000000) translate(390.289819,208.500000)" fill="#f8b31e" opacity="1.000000"></path>
        <path d="M 1.000000 3.500000 L 1.000000 63.500000 C 1.000000 64.880712 2.119288 66.000000 3.500000 66.000000 C 4.880712 66.000000 6.000000 64.880712 6.000000 63.500000 L 6.000000 3.500000 C 6.000000 2.119288 4.880712 1.000000 3.500000 1.000000 C 2.119288 1.000000 1.000000 2.119288 1.000000 3.500000 Z" transform="scale(1.000000,1.000000) translate(320.874384,208.500000)" fill="#f8b31e" opacity="1.000000"></path>
    </g>
</svg>